<svg version="1.1" id="Layer_1" xmlns="http://www.w3.org/2000/svg" xmlns:xlink="http://www.w3.org/1999/xlink" x="0px" y="0px"
	 width="100%" viewBox="0 0 450 450" enable-background="new 0 0 450 450" xml:space="preserve">
<path fill="#FFFEFE" opacity="1.000000" stroke="none" 
	d="
M288.000000,451.000000 
	C192.026505,451.000000 96.553017,451.000000 1.039763,451.000000 
	C1.039763,301.068146 1.039763,151.136292 1.039763,1.102218 
	C150.890152,1.102218 300.780396,1.102218 450.835327,1.102218 
	C450.835327,150.999847 450.835327,300.999908 450.835327,451.000000 
	C396.802948,451.000000 342.651459,451.000000 288.000000,451.000000 
M257.933899,172.855072 
	C257.933899,172.855072 257.829651,172.804611 257.170746,172.848236 
	C256.780914,173.044006 256.391052,173.239761 255.333389,173.180298 
	C252.556473,170.451706 249.779556,167.723129 247.000000,165.000000 
	C247.000000,165.000000 247.005692,164.997559 246.873215,164.347916 
	C245.238113,162.591995 243.603012,160.836060 241.824249,158.583481 
	C241.550232,158.389557 241.276215,158.195648 240.885818,157.341278 
	C238.915039,155.242752 236.944275,153.144226 235.001999,151.002258 
	C235.001999,151.002258 234.954681,151.023514 234.852585,150.363251 
	C233.290604,148.763367 231.728638,147.163467 230.063660,145.047440 
	C229.690094,144.705887 229.316528,144.364334 228.831757,143.357697 
	C222.862961,136.658157 216.894180,129.958603 210.685715,122.617676 
	C201.150864,111.573433 191.662018,100.488731 182.028107,89.531586 
	C180.690369,88.010117 178.683472,86.182465 176.906921,86.094147 
	C168.630463,85.682701 160.322662,85.705795 152.035797,85.931480 
	C150.915482,85.961990 148.942520,87.991493 148.908432,89.141151 
	C148.702484,96.090263 148.945663,103.052689 148.827087,110.926613 
	C148.827087,140.804169 148.827087,170.681717 148.827087,202.110626 
	C151.521820,199.685410 153.125992,198.381210 154.570816,196.919510 
	C167.075745,184.268692 179.552032,171.589539 192.598358,159.292374 
	C197.023911,163.885208 201.449463,168.478043 206.095016,173.714706 
	C213.283600,182.211761 220.402466,190.769180 227.685928,199.184113 
	C232.335617,204.556091 237.228912,209.717224 242.158096,215.458664 
	C242.432724,215.640671 242.707367,215.822693 243.124985,216.670120 
	C247.414886,221.448807 251.704773,226.227509 256.000000,231.000000 
	C256.000000,231.000000 255.993454,231.005081 256.131104,231.670181 
	C258.766724,234.854065 261.415955,238.026794 264.034485,241.224701 
	C267.202362,245.093475 271.192017,246.248169 276.888824,245.093811 
	C283.838989,245.120453 290.789337,245.129410 297.739288,245.183502 
	C300.112366,245.201965 302.079803,244.885971 301.997955,241.799820 
	C301.840332,235.859650 301.743134,229.917847 301.870453,223.073868 
	C301.896942,193.519257 301.928314,163.964645 301.931396,134.410034 
	C301.931519,133.266281 301.660004,132.122482 301.731537,130.440369 
	C300.863678,130.616989 299.995850,130.793594 298.506348,131.245163 
	C285.295654,144.771515 272.084930,158.297867 258.359985,171.983627 
	C258.179993,172.281128 258.000000,172.578629 257.933899,172.855072 
M125.164070,314.043701 
	C123.290977,318.760864 120.480354,323.333893 119.728714,328.223450 
	C117.825516,340.604004 120.282753,351.921783 131.010971,360.028900 
	C131.010971,360.028900 130.772141,360.222931 130.963104,360.863342 
	C143.725357,372.946869 166.799530,372.277618 180.855362,360.220398 
	C181.730042,359.470062 182.058487,356.361603 181.470947,355.925049 
	C178.888275,354.005981 177.624176,347.882172 173.147949,351.202515 
	C162.642838,358.994995 152.082718,358.959961 140.527771,352.833588 
	C139.764008,352.184570 139.000229,351.535553 138.062973,350.341217 
	C137.765976,350.113159 137.468994,349.885071 137.077438,349.297394 
	C137.077438,349.297394 136.806198,349.043121 136.748642,348.321136 
	C136.125137,345.085083 135.501648,341.848999 135.768814,338.755066 
	C138.157425,338.707245 140.546036,338.659424 143.843750,338.895538 
	C153.249451,338.821716 162.655151,338.747864 172.936935,338.837738 
	C175.601990,338.757294 178.267059,338.676849 181.751022,338.873291 
	C186.678223,339.758636 188.461975,337.504700 187.750931,332.821777 
	C187.459229,330.900665 187.078156,328.993073 186.806076,326.394440 
	C186.678589,325.958008 186.551102,325.521576 186.650558,324.348419 
	C182.306656,305.060913 163.935715,294.512695 144.237534,300.122925 
	C136.407013,302.353149 129.601501,306.146301 125.938026,313.901031 
	C125.938026,313.901031 125.783714,313.786102 125.164070,314.043701 
M68.519012,299.832733 
	C62.997883,302.543671 57.476753,305.254639 52.100292,307.894562 
	C51.253971,299.577271 51.256092,299.708771 41.850479,299.860352 
	C38.542828,299.913635 37.549519,301.121216 37.558231,304.297516 
	C37.611668,323.777710 37.600208,343.259064 37.413029,362.738129 
	C37.372162,366.990845 38.695633,369.059937 43.149876,368.491760 
	C44.298111,368.345306 45.487785,368.358734 46.643322,368.464172 
	C50.687920,368.833160 52.078617,367.282928 52.022854,363.025818 
	C51.868156,351.215332 51.679924,339.353607 52.590336,327.596161 
	C53.417625,316.912109 62.358814,310.439056 73.305626,311.198395 
	C83.583618,311.911346 89.263474,318.325867 89.397156,329.641907 
	C89.513229,339.467682 89.460152,349.295807 89.435181,359.122772 
	C89.411293,368.522919 89.387131,368.368500 98.835678,368.506531 
	C102.498344,368.559998 103.853287,367.486694 103.786415,363.713623 
	C103.570969,351.558197 103.728455,339.396423 103.548416,327.239960 
	C103.499512,323.937805 103.125763,320.551086 102.285828,317.365448 
	C98.696716,303.753052 85.470924,296.706757 68.519012,299.832733 
M333.734650,366.663269 
	C336.407684,367.235931 339.062988,367.917450 341.757843,368.356140 
	C345.953308,369.039093 347.595245,367.523407 347.540344,362.916077 
	C347.310150,343.613281 347.395325,324.304840 347.578857,305.000519 
	C347.615784,301.116241 346.331757,299.379700 342.457733,299.635620 
	C340.964813,299.734192 339.453094,299.901001 337.972900,299.772644 
	C333.870789,299.416779 333.015381,301.470856 333.085022,305.176208 
	C333.285217,315.827393 333.287994,326.487366 333.104584,337.139343 
	C332.913147,348.256073 324.351746,356.902130 313.943451,356.843781 
	C302.737915,356.780914 296.111481,349.768036 295.925751,337.457947 
	C295.780090,327.804321 295.830963,318.145660 295.939545,308.490875 
	C296.041656,299.406128 296.125183,299.407135 287.093384,299.627838 
	C286.760529,299.635956 286.425934,299.664276 286.094910,299.641815 
	C282.886566,299.424164 281.818665,300.833527 281.875397,304.089020 
	C282.092957,316.572113 281.657745,329.078949 282.274841,341.536865 
	C282.537842,346.845886 283.755096,352.643646 286.337036,357.200317 
	C293.833130,370.429718 311.943787,373.446991 325.812195,364.529510 
	C327.787598,363.259308 329.841034,362.110504 332.515869,360.512817 
	C332.954651,363.028381 333.203186,364.453400 333.734650,366.663269 
M211.688400,316.862793 
	C214.784454,320.993500 217.774155,325.210205 221.017059,329.222198 
	C222.917526,331.573364 222.932938,333.437103 221.041946,335.826630 
	C214.016647,344.704132 207.133743,353.694550 200.227325,362.665649 
	C199.088089,364.145477 198.099136,365.741028 196.892578,367.498932 
	C208.057129,370.244324 212.059006,368.892700 218.162521,360.725433 
	C219.158951,359.392059 220.053986,357.982941 221.048721,356.648254 
	C224.671921,351.786957 228.317535,346.942352 232.355759,341.556580 
	C237.819351,349.013977 242.731766,355.701172 247.624603,362.402649 
	C252.203354,368.673950 259.946777,370.568359 267.785187,367.098175 
	C266.965637,365.827026 266.251221,364.537842 265.367767,363.377350 
	C258.408173,354.235687 251.498596,345.053680 244.383606,336.033966 
	C242.282532,333.370483 242.031479,331.298340 244.194717,328.560577 
	C249.457520,321.900146 254.530487,315.088409 259.613098,308.287659 
	C261.413483,305.878632 263.020294,303.324860 264.714691,300.838379 
	C255.067383,297.794861 248.389496,300.154449 243.612839,308.694733 
	C240.829453,313.671204 236.723175,317.907776 232.748779,323.080292 
	C227.954498,316.660797 223.706345,310.961884 219.446518,305.271667 
	C215.223465,299.630615 206.892578,297.774048 199.725952,301.270844 
	C203.610138,306.346375 207.422562,311.328125 211.688400,316.862793 
M153.908356,225.433197 
	C147.364151,229.687408 148.528198,236.278168 149.005936,242.498520 
	C149.082886,243.500320 151.149124,245.131943 152.315109,245.148941 
	C167.275574,245.367218 182.240341,245.414902 197.201004,245.242416 
	C198.332062,245.229370 200.402435,243.226685 200.414688,242.130722 
	C200.604523,225.174988 200.617630,208.214706 200.333786,191.261139 
	C200.311279,189.916794 197.995789,187.841934 196.407074,187.437469 
	C191.714447,186.242706 189.296951,190.138687 186.530289,192.884155 
	C175.795792,203.536407 165.122528,214.250381 153.908356,225.433197 
M275.500793,85.626511 
	C268.673065,85.615814 261.836426,85.811226 255.020981,85.516556 
	C250.980957,85.341873 249.895035,86.854332 249.939560,90.707359 
	C250.120422,106.358826 249.986771,122.013756 250.103043,137.666397 
	C250.116501,139.477356 250.767944,142.733093 251.463593,142.828049 
	C253.926605,143.164215 256.582336,142.603043 259.069519,141.992691 
	C260.055847,141.750641 260.809692,140.507584 261.639648,139.690079 
	C273.146606,128.355347 284.363983,116.703743 296.284576,105.822472 
	C301.404999,101.148483 302.423462,96.091515 302.031616,89.872681 
	C301.833557,86.728836 300.686737,85.401459 297.482269,85.474953 
	C290.491058,85.635307 283.495026,85.587563 275.500793,85.626511 
M382.041931,355.891815 
	C377.832916,354.005066 373.623901,352.118317 369.158875,350.116821 
	C368.382080,351.396393 367.570038,352.623779 366.867188,353.910767 
	C363.714020,359.684753 363.705933,359.899902 369.298157,363.131744 
	C378.433899,368.411438 388.356415,370.140625 398.712097,368.644562 
	C409.146851,367.137115 416.955719,359.718506 417.934906,351.008026 
	C419.084747,340.779388 415.058136,335.143829 402.984253,330.527802 
	C397.854553,328.566650 392.547791,327.071930 387.395233,325.166016 
	C383.821167,323.843933 380.434540,321.867706 381.126831,317.326752 
	C381.813873,312.820465 385.450684,310.650055 389.460388,310.945526 
	C395.483887,311.389374 401.634277,312.277496 407.340179,314.160217 
	C411.675140,315.590576 412.887299,313.943848 414.442566,310.701416 
	C416.107605,307.230225 416.049957,304.911407 412.087585,303.189484 
	C403.922333,299.641144 395.456665,298.223694 386.700378,299.573730 
	C379.119476,300.742554 372.719147,304.227814 369.237549,311.454895 
	C364.426758,321.441101 369.371613,331.841766 381.134521,336.471161 
	C387.171112,338.846893 393.415436,340.690247 399.491577,342.972076 
	C402.888611,344.247833 405.751617,346.941193 404.293457,350.536316 
	C403.226654,353.166687 400.174561,356.315002 397.605713,356.726776 
	C392.837006,357.491150 387.774872,356.424683 382.041931,355.891815 
z"/>
<path fill="#EB308A" opacity="1.000000" stroke="none" 
	d="
M228.942963,144.022781 
	C229.316528,144.364334 229.690094,144.705887 230.083038,145.683884 
	C231.719833,147.888062 233.337250,149.455795 234.954681,151.023514 
	C234.954681,151.023514 235.001999,151.002258 234.991257,151.386429 
	C236.987747,153.847641 238.994980,155.924683 241.002197,158.001724 
	C241.276215,158.195648 241.550232,158.389557 241.902740,159.191925 
	C243.656036,161.532761 245.330872,163.265167 247.005692,164.997559 
	C247.005692,164.997559 247.000000,165.000000 246.996521,165.363266 
	C249.979141,168.830521 252.965225,171.934509 256.002502,175.376282 
	C257.359955,176.816910 258.666199,177.919724 260.214111,179.185883 
	C260.653381,179.886368 260.850952,180.423508 261.064148,181.312195 
	C265.053406,186.105652 269.027039,190.547562 273.020294,195.229980 
	C273.039886,195.470505 273.066345,195.952438 273.040039,196.296997 
	C273.008759,197.101807 273.003784,197.562042 272.749390,198.201675 
	C272.673370,199.248123 272.846771,200.115204 273.018433,201.452057 
	C273.018982,213.620926 273.021332,225.320023 272.740723,237.215027 
	C268.829987,242.200714 266.893738,242.035599 263.084961,237.365479 
	C261.102325,234.934464 258.381073,233.105804 255.993469,231.005066 
	C255.993454,231.005081 256.000000,231.000000 256.002228,230.636597 
	C251.663635,225.517029 247.322815,220.760864 242.981995,216.004700 
	C242.707367,215.822693 242.432724,215.640671 242.084869,214.851974 
	C241.772797,213.467850 241.748230,212.506699 241.262863,211.940704 
	C234.478653,204.029907 227.769028,196.047729 220.751328,188.347168 
	C216.071442,183.211884 212.139496,177.778320 212.127487,170.599976 
	C212.115753,163.582397 212.956299,156.560760 212.878433,149.546936 
	C212.835709,145.698318 211.669434,141.862198 211.006866,137.616974 
	C211.009705,136.137604 211.015457,135.061707 211.351990,133.938904 
	C212.761871,132.978348 213.840958,132.064682 215.361221,130.777451 
	C217.671875,133.304871 219.755157,135.792664 222.064621,138.048935 
	C224.233109,140.167450 226.640625,142.041290 228.942963,144.022781 
z"/>
<path fill="#F2416C" opacity="1.000000" stroke="none" 
	d="
M211.021194,133.985794 
	C211.015457,135.061707 211.009705,136.137604 210.716034,137.888611 
	C210.404297,146.246750 210.677673,153.946930 210.236557,161.605942 
	C210.001221,165.691650 211.701981,170.946365 205.875015,173.070877 
	C201.449463,168.478043 197.023911,163.885208 192.266693,158.750107 
	C190.505493,155.850204 189.373718,153.234894 187.594925,151.179535 
	C179.910034,142.299835 172.165207,133.464005 164.181931,124.853539 
	C159.381821,119.676315 154.102585,114.943298 149.038681,110.010658 
	C148.945663,103.052689 148.702484,96.090263 148.908432,89.141151 
	C148.942520,87.991493 150.915482,85.961990 152.035797,85.931480 
	C160.322662,85.705795 168.630463,85.682701 176.906921,86.094147 
	C178.683472,86.182465 180.690369,88.010117 182.028107,89.531586 
	C191.662018,100.488731 201.150864,111.573433 210.877411,123.297539 
	C211.053146,127.313530 211.037170,130.649658 211.021194,133.985794 
z"/>
<path fill="#EE5E4C" opacity="1.000000" stroke="none" 
	d="
M68.929352,299.713928 
	C85.470924,296.706757 98.696716,303.753052 102.285828,317.365448 
	C103.125763,320.551086 103.499512,323.937805 103.548416,327.239960 
	C103.728455,339.396423 103.570969,351.558197 103.786415,363.713623 
	C103.853287,367.486694 102.498344,368.559998 98.835678,368.506531 
	C89.387131,368.368500 89.411293,368.522919 89.435181,359.122772 
	C89.460152,349.295807 89.513229,339.467682 89.397156,329.641907 
	C89.263474,318.325867 83.583618,311.911346 73.305626,311.198395 
	C62.358814,310.439056 53.417625,316.912109 52.590336,327.596161 
	C51.679924,339.353607 51.868156,351.215332 52.022854,363.025818 
	C52.078617,367.282928 50.687920,368.833160 46.643322,368.464172 
	C45.487785,368.358734 44.298111,368.345306 43.149876,368.491760 
	C38.695633,369.059937 37.372162,366.990845 37.413029,362.738129 
	C37.600208,343.259064 37.611668,323.777710 37.558231,304.297516 
	C37.549519,301.121216 38.542828,299.913635 41.850479,299.860352 
	C51.256092,299.708771 51.253971,299.577271 52.100292,307.894562 
	C57.476753,305.254639 62.997883,302.543671 68.929352,299.713928 
z"/>
<path fill="#ED5C4C" opacity="1.000000" stroke="none" 
	d="
M333.593201,366.270844 
	C333.203186,364.453400 332.954651,363.028381 332.515869,360.512817 
	C329.841034,362.110504 327.787598,363.259308 325.812195,364.529510 
	C311.943787,373.446991 293.833130,370.429718 286.337036,357.200317 
	C283.755096,352.643646 282.537842,346.845886 282.274841,341.536865 
	C281.657745,329.078949 282.092957,316.572113 281.875397,304.089020 
	C281.818665,300.833527 282.886566,299.424164 286.094910,299.641815 
	C286.425934,299.664276 286.760529,299.635956 287.093384,299.627838 
	C296.125183,299.407135 296.041656,299.406128 295.939545,308.490875 
	C295.830963,318.145660 295.780090,327.804321 295.925751,337.457947 
	C296.111481,349.768036 302.737915,356.780914 313.943451,356.843781 
	C324.351746,356.902130 332.913147,348.256073 333.104584,337.139343 
	C333.287994,326.487366 333.285217,315.827393 333.085022,305.176208 
	C333.015381,301.470856 333.870789,299.416779 337.972900,299.772644 
	C339.453094,299.901001 340.964813,299.734192 342.457733,299.635620 
	C346.331757,299.379700 347.615784,301.116241 347.578857,305.000519 
	C347.395325,324.304840 347.310150,343.613281 347.540344,362.916077 
	C347.595245,367.523407 345.953308,369.039093 341.757843,368.356140 
	C339.062988,367.917450 336.407684,367.235931 333.593201,366.270844 
z"/>
<path fill="#EE5445" opacity="1.000000" stroke="none" 
	d="
M261.048553,180.960632 
	C260.850952,180.423508 260.653381,179.886368 260.186340,178.819672 
	C259.221161,176.461594 258.525421,174.633102 257.829651,172.804611 
	C257.829651,172.804611 257.933899,172.855072 258.139862,172.792419 
	C258.521973,172.427917 258.698120,172.126068 258.874237,171.824203 
	C272.084930,158.297867 285.295654,144.771515 299.114868,131.120697 
	C300.320618,130.990387 300.917816,130.984558 301.515045,130.978729 
	C301.660004,132.122482 301.931519,133.266281 301.931396,134.410034 
	C301.928314,163.964645 301.896942,193.519257 301.409241,223.517197 
	C295.990326,219.025467 291.016144,214.106796 286.079865,209.150421 
	C281.720093,204.772934 277.402527,200.353394 273.066345,195.952438 
	C273.066345,195.952438 273.039886,195.470505 272.992371,194.877533 
	C268.979431,189.843231 265.014008,185.401932 261.048553,180.960632 
z"/>
<path fill="#EF5D4B" opacity="1.000000" stroke="none" 
	d="
M211.461685,316.586334 
	C207.422562,311.328125 203.610138,306.346375 199.725952,301.270844 
	C206.892578,297.774048 215.223465,299.630615 219.446518,305.271667 
	C223.706345,310.961884 227.954498,316.660797 232.748779,323.080292 
	C236.723175,317.907776 240.829453,313.671204 243.612839,308.694733 
	C248.389496,300.154449 255.067383,297.794861 264.714691,300.838379 
	C263.020294,303.324860 261.413483,305.878632 259.613098,308.287659 
	C254.530487,315.088409 249.457520,321.900146 244.194717,328.560577 
	C242.031479,331.298340 242.282532,333.370483 244.383606,336.033966 
	C251.498596,345.053680 258.408173,354.235687 265.367767,363.377350 
	C266.251221,364.537842 266.965637,365.827026 267.785187,367.098175 
	C259.946777,370.568359 252.203354,368.673950 247.624603,362.402649 
	C242.731766,355.701172 237.819351,349.013977 232.355759,341.556580 
	C228.317535,346.942352 224.671921,351.786957 221.048721,356.648254 
	C220.053986,357.982941 219.158951,359.392059 218.162521,360.725433 
	C212.059006,368.892700 208.057129,370.244324 196.892578,367.498932 
	C198.099136,365.741028 199.088089,364.145477 200.227325,362.665649 
	C207.133743,353.694550 214.016647,344.704132 221.041946,335.826630 
	C222.932938,333.437103 222.917526,331.573364 221.017059,329.222198 
	C217.774155,325.210205 214.784454,320.993500 211.461685,316.586334 
z"/>
<path fill="#10A7C3" opacity="1.000000" stroke="none" 
	d="
M154.167419,225.187286 
	C165.122528,214.250381 175.795792,203.536407 186.530289,192.884155 
	C189.296951,190.138687 191.714447,186.242706 196.407074,187.437469 
	C197.995789,187.841934 200.311279,189.916794 200.333786,191.261139 
	C200.617630,208.214706 200.604523,225.174988 200.414688,242.130722 
	C200.402435,243.226685 198.332062,245.229370 197.201004,245.242416 
	C182.240341,245.414902 167.275574,245.367218 152.315109,245.148941 
	C151.149124,245.131943 149.082886,243.500320 149.005936,242.498520 
	C148.528198,236.278168 147.364151,229.687408 154.167419,225.187286 
z"/>
<path fill="#ED5447" opacity="1.000000" stroke="none" 
	d="
M148.932892,110.468636 
	C154.102585,114.943298 159.381821,119.676315 164.181931,124.853539 
	C172.165207,133.464005 179.910034,142.299835 187.594925,151.179535 
	C189.373718,153.234894 190.505493,155.850204 191.985931,158.563324 
	C179.552032,171.589539 167.075745,184.268692 154.570816,196.919510 
	C153.125992,198.381210 151.521820,199.685410 148.827087,202.110626 
	C148.827087,170.681717 148.827087,140.804169 148.932892,110.468636 
z"/>
<path fill="#10A7C3" opacity="1.000000" stroke="none" 
	d="
M276.000885,85.625671 
	C283.495026,85.587563 290.491058,85.635307 297.482269,85.474953 
	C300.686737,85.401459 301.833557,86.728836 302.031616,89.872681 
	C302.423462,96.091515 301.404999,101.148483 296.284576,105.822472 
	C284.363983,116.703743 273.146606,128.355347 261.639648,139.690079 
	C260.809692,140.507584 260.055847,141.750641 259.069519,141.992691 
	C256.582336,142.603043 253.926605,143.164215 251.463593,142.828049 
	C250.767944,142.733093 250.116501,139.477356 250.103043,137.666397 
	C249.986771,122.013756 250.120422,106.358826 249.939560,90.707359 
	C249.895035,86.854332 250.980957,85.341873 255.020981,85.516556 
	C261.836426,85.811226 268.673065,85.615814 276.000885,85.625671 
z"/>
<path fill="#EF5744" opacity="1.000000" stroke="none" 
	d="
M138.236450,350.886566 
	C139.000229,351.535553 139.764008,352.184570 140.791718,353.395935 
	C152.844452,362.678558 164.032516,359.179321 174.892487,352.172760 
	C181.673660,356.972656 181.505051,359.067505 174.352386,362.865997 
	C160.560333,370.190369 147.084473,370.158691 133.885925,361.378021 
	C132.988861,360.781250 131.816498,360.598297 130.772141,360.222931 
	C130.772141,360.222931 131.010971,360.028900 130.942902,359.768494 
	C130.502762,358.786896 130.281433,357.916107 129.736176,357.366821 
	C120.417366,347.979187 119.759598,336.532410 122.134186,324.517731 
	C122.860344,320.843597 124.540466,317.358032 125.783714,313.786102 
	C125.783714,313.786102 125.938026,313.901031 126.190651,313.810211 
	C135.514709,304.739349 145.700882,298.731110 159.187210,300.948730 
	C171.747498,303.014069 180.567749,309.341919 184.220139,321.984680 
	C184.552292,323.134399 185.670471,324.057037 186.423630,325.085144 
	C186.551102,325.521576 186.678589,325.958008 186.524231,327.046814 
	C186.083710,330.610687 185.925064,333.522156 185.795059,335.907837 
	C183.854767,336.980560 182.393433,337.788483 180.932114,338.596405 
	C178.267059,338.676849 175.601990,338.757294 172.361237,338.395111 
	C171.218994,337.663757 170.654465,337.128052 170.085587,337.123413 
	C161.949677,337.057037 153.812515,337.012573 145.677734,337.119202 
	C144.757004,337.131256 143.848709,338.091217 142.934662,338.611603 
	C140.546036,338.659424 138.157425,338.707245 135.075302,338.498688 
	C131.051865,340.918762 131.968216,345.001129 136.806198,349.043121 
	C136.806198,349.043121 137.077438,349.297394 137.163666,349.780701 
	C137.578735,350.471558 137.907593,350.679077 138.236450,350.886566 
M155.499481,329.084839 
	C161.606949,329.084839 167.714432,329.084839 173.747849,329.084839 
	C174.483307,318.622864 166.829880,310.612823 156.294968,310.045715 
	C143.501144,309.356995 133.993393,317.102173 133.669052,329.085815 
	C140.611542,329.085815 147.555634,329.085815 155.499481,329.084839 
z"/>
<path fill="#EE5D4B" opacity="1.000000" stroke="none" 
	d="
M382.438416,356.006165 
	C387.774872,356.424683 392.837006,357.491150 397.605713,356.726776 
	C400.174561,356.315002 403.226654,353.166687 404.293457,350.536316 
	C405.751617,346.941193 402.888611,344.247833 399.491577,342.972076 
	C393.415436,340.690247 387.171112,338.846893 381.134521,336.471161 
	C369.371613,331.841766 364.426758,321.441101 369.237549,311.454895 
	C372.719147,304.227814 379.119476,300.742554 386.700378,299.573730 
	C395.456665,298.223694 403.922333,299.641144 412.087585,303.189484 
	C416.049957,304.911407 416.107605,307.230225 414.442566,310.701416 
	C412.887299,313.943848 411.675140,315.590576 407.340179,314.160217 
	C401.634277,312.277496 395.483887,311.389374 389.460388,310.945526 
	C385.450684,310.650055 381.813873,312.820465 381.126831,317.326752 
	C380.434540,321.867706 383.821167,323.843933 387.395233,325.166016 
	C392.547791,327.071930 397.854553,328.566650 402.984253,330.527802 
	C415.058136,335.143829 419.084747,340.779388 417.934906,351.008026 
	C416.955719,359.718506 409.146851,367.137115 398.712097,368.644562 
	C388.356415,370.140625 378.433899,368.411438 369.298157,363.131744 
	C363.705933,359.899902 363.714020,359.684753 366.867188,353.910767 
	C367.570038,352.623779 368.382080,351.396393 369.158875,350.116821 
	C373.623901,352.118317 377.832916,354.005066 382.438416,356.006165 
z"/>
<path fill="#F0476C" opacity="1.000000" stroke="none" 
	d="
M273.040039,196.296997 
	C277.402527,200.353394 281.720093,204.772934 286.079865,209.150421 
	C291.016144,214.106796 295.990326,219.025467 301.284424,223.968628 
	C301.743134,229.917847 301.840332,235.859650 301.997955,241.799820 
	C302.079803,244.885971 300.112366,245.201965 297.739288,245.183502 
	C290.789337,245.129410 283.838989,245.120453 276.203522,244.718063 
	C274.686707,241.901260 273.855194,239.460205 273.023682,237.019135 
	C273.021332,225.320023 273.018982,213.620926 273.263184,201.270248 
	C273.339417,199.753220 273.169098,198.887756 272.998779,198.022293 
	C273.003784,197.562042 273.008759,197.101807 273.040039,196.296997 
z"/>
<path fill="#E74388" opacity="1.000000" stroke="none" 
	d="
M205.985016,173.392792 
	C211.701981,170.946365 210.001221,165.691650 210.236557,161.605942 
	C210.677673,153.946930 210.404297,146.246750 210.718933,138.292068 
	C211.669434,141.862198 212.835709,145.698318 212.878433,149.546936 
	C212.956299,156.560760 212.115753,163.582397 212.127487,170.599976 
	C212.139496,177.778320 216.071442,183.211884 220.751328,188.347168 
	C227.769028,196.047729 234.478653,204.029907 241.262863,211.940704 
	C241.748230,212.506699 241.772797,213.467850 242.012299,214.609085 
	C237.228912,209.717224 232.335617,204.556091 227.685928,199.184113 
	C220.402466,190.769180 213.283600,182.211761 205.985016,173.392792 
z"/>
<path fill="#EB7768" opacity="1.000000" stroke="none" 
	d="
M130.867615,360.543152 
	C131.816498,360.598297 132.988861,360.781250 133.885925,361.378021 
	C147.084473,370.158691 160.560333,370.190369 174.352386,362.865997 
	C181.505051,359.067505 181.673660,356.972656 174.892487,352.172760 
	C164.032516,359.179321 152.844452,362.678558 140.996582,353.617920 
	C152.082718,358.959961 162.642838,358.994995 173.147949,351.202515 
	C177.624176,347.882172 178.888275,354.005981 181.470947,355.925049 
	C182.058487,356.361603 181.730042,359.470062 180.855362,360.220398 
	C166.799530,372.277618 143.725357,372.946869 130.867615,360.543152 
z"/>
<path fill="#EB7768" opacity="1.000000" stroke="none" 
	d="
M186.537094,324.716797 
	C185.670471,324.057037 184.552292,323.134399 184.220139,321.984680 
	C180.567749,309.341919 171.747498,303.014069 159.187210,300.948730 
	C145.700882,298.731110 135.514709,304.739349 126.100082,313.777771 
	C129.601501,306.146301 136.407013,302.353149 144.237534,300.122925 
	C163.935715,294.512695 182.306656,305.060913 186.537094,324.716797 
z"/>
<path fill="#EB7768" opacity="1.000000" stroke="none" 
	d="
M125.473892,313.914917 
	C124.540466,317.358032 122.860344,320.843597 122.134186,324.517731 
	C119.759598,336.532410 120.417366,347.979187 129.736176,357.366821 
	C130.281433,357.916107 130.502762,358.786896 130.827179,359.870850 
	C120.282753,351.921783 117.825516,340.604004 119.728714,328.223450 
	C120.480354,323.333893 123.290977,318.760864 125.473892,313.914917 
z"/>
<path fill="#E74388" opacity="1.000000" stroke="none" 
	d="
M272.740723,237.215027 
	C273.855194,239.460205 274.686707,241.901260 275.739380,244.629684 
	C271.192017,246.248169 267.202362,245.093475 264.034485,241.224701 
	C261.415955,238.026794 258.766724,234.854065 256.062286,231.337616 
	C258.381073,233.105804 261.102325,234.934464 263.084961,237.365479 
	C266.893738,242.035599 268.829987,242.200714 272.740723,237.215027 
z"/>
<path fill="#E74388" opacity="1.000000" stroke="none" 
	d="
M211.351990,133.938904 
	C211.037170,130.649658 211.053146,127.313530 210.997253,123.618225 
	C216.894180,129.958603 222.862961,136.658157 228.887360,143.690247 
	C226.640625,142.041290 224.233109,140.167450 222.064621,138.048935 
	C219.755157,135.792664 217.671875,133.304871 215.361221,130.777451 
	C213.840958,132.064682 212.761871,132.978348 211.351990,133.938904 
z"/>
<path fill="#EB7768" opacity="1.000000" stroke="none" 
	d="
M143.389206,338.753571 
	C143.848709,338.091217 144.757004,337.131256 145.677734,337.119202 
	C153.812515,337.012573 161.949677,337.057037 170.085587,337.123413 
	C170.654465,337.128052 171.218994,337.663757 171.923203,338.313263 
	C162.655151,338.747864 153.249451,338.821716 143.389206,338.753571 
z"/>
<path fill="#E74388" opacity="1.000000" stroke="none" 
	d="
M243.053497,216.337402 
	C247.322815,220.760864 251.663635,225.517029 255.999573,230.639694 
	C251.704773,226.227509 247.414886,221.448807 243.053497,216.337402 
z"/>
<path fill="#EB7768" opacity="1.000000" stroke="none" 
	d="
M181.341568,338.734863 
	C182.393433,337.788483 183.854767,336.980560 185.795059,335.907837 
	C185.925064,333.522156 186.083710,330.610687 186.490051,327.389282 
	C187.078156,328.993073 187.459229,330.900665 187.750931,332.821777 
	C188.461975,337.504700 186.678223,339.758636 181.341568,338.734863 
z"/>
<path fill="#E74388" opacity="1.000000" stroke="none" 
	d="
M255.951309,175.038483 
	C252.965225,171.934509 249.979141,168.830521 246.997849,165.360535 
	C249.779556,167.723129 252.556473,170.451706 255.672241,173.574631 
	C255.991180,174.325470 255.971237,174.681976 255.951309,175.038483 
z"/>
<path fill="#EB7768" opacity="1.000000" stroke="none" 
	d="
M136.777420,348.682129 
	C131.968216,345.001129 131.051865,340.918762 134.629974,338.427612 
	C135.501648,341.848999 136.125137,345.085083 136.777420,348.682129 
z"/>
<path fill="#E74388" opacity="1.000000" stroke="none" 
	d="
M240.944000,157.671509 
	C238.994980,155.924683 236.987747,153.847641 234.977020,151.408142 
	C236.944275,153.144226 238.915039,155.242752 240.944000,157.671509 
z"/>
<path fill="#E74388" opacity="1.000000" stroke="none" 
	d="
M246.939453,164.672729 
	C245.330872,163.265167 243.656036,161.532761 241.974579,159.440247 
	C243.603012,160.836060 245.238113,162.591995 246.939453,164.672729 
z"/>
<path fill="#F0476C" opacity="1.000000" stroke="none" 
	d="
M256.002502,175.376282 
	C255.971237,174.681976 255.991180,174.325470 256.006165,173.702240 
	C256.391052,173.239761 256.780914,173.044006 257.500183,172.826416 
	C258.525421,174.633102 259.221161,176.461594 259.944702,178.656311 
	C258.666199,177.919724 257.359955,176.816910 256.002502,175.376282 
z"/>
<path fill="#E74388" opacity="1.000000" stroke="none" 
	d="
M234.903625,150.693390 
	C233.337250,149.455795 231.719833,147.888062 230.134537,145.941956 
	C231.728638,147.163467 233.290604,148.763367 234.903625,150.693390 
z"/>
<path fill="#F0476C" opacity="1.000000" stroke="none" 
	d="
M301.623291,130.709549 
	C300.917816,130.984558 300.320618,130.990387 299.425690,130.983215 
	C299.995850,130.793594 300.863678,130.616989 301.623291,130.709549 
z"/>
<path fill="#EB7768" opacity="1.000000" stroke="none" 
	d="
M138.149719,350.613892 
	C137.907593,350.679077 137.578735,350.471558 137.210938,349.960510 
	C137.468994,349.885071 137.765976,350.113159 138.149719,350.613892 
z"/>
<path fill="#F0476C" opacity="1.000000" stroke="none" 
	d="
M258.617126,171.903915 
	C258.698120,172.126068 258.521973,172.427917 258.082916,172.802948 
	C258.000000,172.578629 258.179993,172.281128 258.617126,171.903915 
z"/>
<path fill="#F0476C" opacity="1.000000" stroke="none" 
	d="
M261.064148,181.312195 
	C265.014008,185.401932 268.979431,189.843231 272.972778,194.637009 
	C269.027039,190.547562 265.053406,186.105652 261.064148,181.312195 
z"/>
<path fill="#E74388" opacity="1.000000" stroke="none" 
	d="
M272.749390,198.201675 
	C273.169098,198.887756 273.339417,199.753220 273.264954,200.800476 
	C272.846771,200.115204 272.673370,199.248123 272.749390,198.201675 
z"/>
<path fill="#FFF8F6" opacity="1.000000" stroke="none" 
	d="
M154.999603,329.085327 
	C147.555634,329.085815 140.611542,329.085815 133.669052,329.085815 
	C133.993393,317.102173 143.501144,309.356995 156.294968,310.045715 
	C166.829880,310.612823 174.483307,318.622864 173.747849,329.084839 
	C167.714432,329.084839 161.606949,329.084839 154.999603,329.085327 
z"/>
</svg>